<svg width="23" height="26" viewBox="0 0 23 26" fill="none" xmlns="http://www.w3.org/2000/svg">
<path d="M16.705 15.2506H6.72757C6.3968 15.2506 6.07957 15.382 5.84568 15.6159C5.61179 15.8498 5.4804 16.167 5.4804 16.4978C5.4804 16.8286 5.61179 17.1458 5.84568 17.3797C6.07957 17.6136 6.3968 17.745 6.72757 17.745H16.705C17.0357 17.745 17.353 17.6136 17.5868 17.3797C17.8207 17.1458 17.9521 16.8286 17.9521 16.4978C17.9521 16.167 17.8207 15.8498 17.5868 15.6159C17.353 15.382 17.0357 15.2506 16.705 15.2506ZM16.705 10.2619H9.22192C8.89115 10.2619 8.57392 10.3933 8.34003 10.6272C8.10614 10.8611 7.97474 11.1783 7.97474 11.5091C7.97474 11.8399 8.10614 12.1571 8.34003 12.391C8.57392 12.6249 8.89115 12.7563 9.22192 12.7563H16.705C17.0357 12.7563 17.353 12.6249 17.5868 12.391C17.8207 12.1571 17.9521 11.8399 17.9521 11.5091C17.9521 11.1783 17.8207 10.8611 17.5868 10.6272C17.353 10.3933 17.0357 10.2619 16.705 10.2619ZM21.6937 2.77889H17.9521V1.53172C17.9521 1.20095 17.8207 0.883725 17.5868 0.649835C17.353 0.415944 17.0357 0.284546 16.705 0.284546C16.3742 0.284546 16.057 0.415944 15.8231 0.649835C15.5892 0.883725 15.4578 1.20095 15.4578 1.53172V2.77889H12.9634V1.53172C12.9634 1.20095 12.832 0.883725 12.5982 0.649835C12.3643 0.415944 12.047 0.284546 11.7163 0.284546C11.3855 0.284546 11.0683 0.415944 10.8344 0.649835C10.6005 0.883725 10.4691 1.20095 10.4691 1.53172V2.77889H7.97474V1.53172C7.97474 1.20095 7.84334 0.883725 7.60945 0.649835C7.37556 0.415944 7.05834 0.284546 6.72757 0.284546C6.3968 0.284546 6.07957 0.415944 5.84568 0.649835C5.61179 0.883725 5.4804 1.20095 5.4804 1.53172V2.77889H1.73887C1.4081 2.77889 1.09088 2.91029 0.856988 3.14418C0.623097 3.37807 0.491699 3.6953 0.491699 4.02607V21.4865C0.491699 22.4788 0.885894 23.4305 1.58757 24.1322C2.28924 24.8338 3.24091 25.228 4.23322 25.228H19.1993C20.1916 25.228 21.1433 24.8338 21.845 24.1322C22.5466 23.4305 22.9408 22.4788 22.9408 21.4865V4.02607C22.9408 3.6953 22.8094 3.37807 22.5755 3.14418C22.3417 2.91029 22.0244 2.77889 21.6937 2.77889ZM20.4465 21.4865C20.4465 21.8173 20.3151 22.1345 20.0812 22.3684C19.8473 22.6023 19.5301 22.7337 19.1993 22.7337H4.23322C3.90245 22.7337 3.58523 22.6023 3.35134 22.3684C3.11745 22.1345 2.98605 21.8173 2.98605 21.4865V5.27324H5.4804V6.52042C5.4804 6.85119 5.61179 7.16841 5.84568 7.4023C6.07957 7.63619 6.3968 7.76759 6.72757 7.76759C7.05834 7.76759 7.37556 7.63619 7.60945 7.4023C7.84334 7.16841 7.97474 6.85119 7.97474 6.52042V5.27324H10.4691V6.52042C10.4691 6.85119 10.6005 7.16841 10.8344 7.4023C11.0683 7.63619 11.3855 7.76759 11.7163 7.76759C12.047 7.76759 12.3643 7.63619 12.5982 7.4023C12.832 7.16841 12.9634 6.85119 12.9634 6.52042V5.27324H15.4578V6.52042C15.4578 6.85119 15.5892 7.16841 15.8231 7.4023C16.057 7.63619 16.3742 7.76759 16.705 7.76759C17.0357 7.76759 17.353 7.63619 17.5868 7.4023C17.8207 7.16841 17.9521 6.85119 17.9521 6.52042V5.27324H20.4465V21.4865Z" fill="black"/>
</svg>
