<svg width="13" height="20" viewBox="0 0 13 20" fill="none" xmlns="http://www.w3.org/2000/svg">
<path d="M9.22772 18.9473L1.31994 11.0396C1.14803 10.8676 1.02598 10.6814 0.953778 10.4809C0.881576 10.2803 0.846049 10.0654 0.847195 9.8362C0.847195 9.60699 0.883295 9.3921 0.955496 9.19154C1.0277 8.99098 1.14918 8.80475 1.31994 8.63284L9.22772 0.725068C9.54288 0.409903 9.93712 0.245445 10.4104 0.231692C10.8838 0.217939 11.2918 0.382398 11.6344 0.725068C11.9496 1.04023 12.1072 1.44135 12.1072 1.92842C12.1072 2.4155 11.9496 2.81662 11.6344 3.13178L4.97299 9.8362L11.6344 16.5406C11.9496 16.8558 12.1146 17.25 12.1295 17.7233C12.1444 18.1967 11.9794 18.6047 11.6344 18.9473C11.3193 19.2625 10.9181 19.4201 10.4311 19.4201C9.944 19.4201 9.54288 19.2625 9.22772 18.9473Z" fill="black"/>
</svg>
