<svg width="13" height="20" viewBox="0 0 13 20" fill="none" xmlns="http://www.w3.org/2000/svg">
<path d="M3.79621 19.5182L11.704 11.6104C11.8759 11.4385 11.9979 11.2523 12.0701 11.0517C12.1423 10.8512 12.1779 10.6363 12.1767 10.4071C12.1767 10.1778 12.1406 9.96296 12.0684 9.7624C11.9962 9.56184 11.8747 9.37561 11.704 9.2037L3.79621 1.29593C3.48105 0.980765 3.0868 0.816306 2.61348 0.802554C2.14016 0.788801 1.73217 0.953259 1.3895 1.29593C1.07433 1.61109 0.916749 2.01221 0.916749 2.49929C0.916749 2.98636 1.07433 3.38748 1.3895 3.70264L8.05094 10.4071L1.3895 17.1115C1.07433 17.4266 0.909301 17.8209 0.894403 18.2942C0.879504 18.7675 1.04454 19.1755 1.3895 19.5182C1.70466 19.8334 2.10578 19.9909 2.59285 19.9909C3.07993 19.9909 3.48105 19.8334 3.79621 19.5182Z" fill="black"/>
</svg>
