<svg width="31" height="31" viewBox="0 0 31 31" fill="none" xmlns="http://www.w3.org/2000/svg">
<path d="M11.0722 30.0172C10.6808 30.0172 10.3054 29.8617 10.0286 29.585C9.75187 29.3082 9.59638 28.9328 9.59638 28.5414V24.1138H3.69293C2.91009 24.1138 2.15931 23.8028 1.60575 23.2492C1.05219 22.6957 0.741211 21.9449 0.741211 21.1621V3.45172C0.741211 2.66888 1.05219 1.91809 1.60575 1.36454C2.15931 0.810984 2.91009 0.5 3.69293 0.5H27.3067C28.0896 0.5 28.8403 0.810984 29.3939 1.36454C29.9475 1.91809 30.2584 2.66888 30.2584 3.45172V21.1621C30.2584 21.9449 29.9475 22.6957 29.3939 23.2492C28.8403 23.8028 28.0896 24.1138 27.3067 24.1138H18.304L12.8433 29.5892C12.5481 29.8696 12.1791 30.0172 11.8102 30.0172H11.0722ZM12.5481 21.1621V25.7077L17.0938 21.1621H27.3067V3.45172H3.69293V21.1621H12.5481ZM22.8791 13.7828H19.9274V10.831H22.8791V13.7828ZM16.9757 13.7828H14.024V10.831H16.9757V13.7828ZM11.0722 13.7828H8.12052V10.831H11.0722V13.7828Z" fill="black"/>
</svg>
