<svg xmlns="http://www.w3.org/2000/svg" width="59" height="29" viewBox="0 0 59 29" fill="none">
<path d="M1.63965 25.5472C1.75949 24.9479 2.48136 24.2251 2.81451 23.7254C3.25857 23.0593 3.65288 22.3852 4.06373 21.6954C5.26957 19.6709 6.72954 18.0721 8.56984 16.6093C9.61577 15.7779 10.6355 14.5512 12.1093 14.7355C13.5332 14.9134 14.4757 16.3044 15.6934 16.9216C18.2191 18.2017 21.6085 18.6981 24.3635 18.0518C26.1951 17.6222 28.0461 17.0263 29.643 16.0144C31.6968 14.713 33.1362 12.7424 35.0711 11.315C35.8827 10.7163 36.4393 10.4499 36.4393 9.36679C36.4393 7.29089 36.2447 4.00829 34.1937 2.88275C32.2731 1.82874 28.5268 2.8198 27.9625 5.05401C27.6941 6.11661 27.7191 7.37087 27.8286 8.44475C28.0565 10.6775 29.0017 12.079 30.9294 13.2185C33.4874 14.7307 36.283 15.1051 39.1013 14.1406C40.3865 13.7008 41.4225 13.1294 42.2095 12.0363C43.862 9.74112 46.8847 12.8795 47.8905 14.215C49.1733 15.9181 50.1691 17.8196 51.4299 19.539C52.3046 20.7317 52.7354 22.3607 52.5156 23.822C52.2275 25.7369 50.8943 26.745 49.0133 26.7592C48.0681 26.7663 46.8931 26.6729 46.091 26.0974C45.0983 25.3851 45.2626 23.844 45.4218 22.8108C46.2688 17.315 53.5168 16.4457 58.1222 16.4457" stroke="black" stroke-width="3"/>
</svg>