<svg width="40" height="32" viewBox="0 0 40 32" fill="none" xmlns="http://www.w3.org/2000/svg">
<path d="M12.2972 11.0308C12.5847 11.2828 12.7604 11.6387 12.7856 12.0202C12.8109 12.4016 12.6836 12.7775 12.4318 13.0652L11.1608 14.5189H16.664C17.0465 14.5189 17.4133 14.6708 17.6838 14.9413C17.9542 15.2118 18.1062 15.5786 18.1062 15.9611C18.1062 16.3435 17.9542 16.7104 17.6838 16.9808C17.4133 17.2513 17.0465 17.4032 16.664 17.4032H11.1608L12.4318 18.8569C12.6723 19.1461 12.7903 19.5177 12.7607 19.8927C12.731 20.2676 12.5561 20.6161 12.2732 20.8639C11.9903 21.1117 11.6217 21.2392 11.2462 21.2192C10.8706 21.1991 10.5177 21.0332 10.2628 20.7567L6.89776 16.911C6.6676 16.648 6.54073 16.3105 6.54073 15.9611C6.54073 15.6116 6.6676 15.2741 6.89776 15.0112L10.2628 11.1654C10.5148 10.8779 10.8706 10.7022 11.2521 10.677C11.6336 10.6517 12.0095 10.779 12.2972 11.0308ZM27.5956 13.0652C27.3436 12.7771 27.2165 12.4007 27.2421 12.0188C27.2677 11.6369 27.4439 11.2808 27.7321 11.0289C28.0202 10.777 28.3966 10.6498 28.7785 10.6754C29.1604 10.701 29.5165 10.8773 29.7684 11.1654L33.1334 15.0112C33.3636 15.2741 33.4905 15.6116 33.4905 15.9611C33.4905 16.3105 33.3636 16.648 33.1334 16.911L29.7684 20.7567C29.5165 21.0448 29.1604 21.2211 28.7785 21.2467C28.3966 21.2723 28.0202 21.1452 27.7321 20.8932C27.4439 20.6413 27.2677 20.2852 27.2421 19.9033C27.2165 19.5215 27.3436 19.145 27.5956 18.8569L28.8685 17.4032H23.3652C22.9828 17.4032 22.6159 17.2513 22.3455 16.9808C22.075 16.7104 21.9231 16.3435 21.9231 15.9611C21.9231 15.5786 22.075 15.2118 22.3455 14.9413C22.6159 14.6708 22.9828 14.5189 23.3652 14.5189H28.8685L27.5956 13.0652ZM0.771484 4.90454C0.771484 3.75709 1.22731 2.65664 2.03868 1.84527C2.85005 1.0339 3.9505 0.578079 5.09795 0.578079H34.9025C36.0499 0.578079 37.1504 1.0339 37.9618 1.84527C38.7731 2.65664 39.2289 3.75709 39.2289 4.90454V27.0176C39.2289 27.5857 39.117 28.1483 38.8996 28.6732C38.6822 29.1982 38.3635 29.6751 37.9618 30.0769C37.56 30.4786 37.0831 30.7973 36.5581 31.0147C36.0332 31.2321 35.4706 31.344 34.9025 31.344H5.09795C4.52979 31.344 3.96719 31.2321 3.44228 31.0147C2.91737 30.7973 2.44043 30.4786 2.03868 30.0769C1.63693 29.6751 1.31824 29.1982 1.10082 28.6732C0.883392 28.1483 0.771484 27.5857 0.771484 27.0176V4.90454ZM5.09795 3.46239C4.71547 3.46239 4.34865 3.61433 4.07819 3.88479C3.80773 4.15524 3.65579 4.52206 3.65579 4.90454V27.0176C3.65579 27.8137 4.30188 28.4597 5.09795 28.4597H34.9025C35.285 28.4597 35.6518 28.3078 35.9222 28.0373C36.1927 27.7669 36.3446 27.4001 36.3446 27.0176V4.90454C36.3446 4.52206 36.1927 4.15524 35.9222 3.88479C35.6518 3.61433 35.285 3.46239 34.9025 3.46239H5.09795Z" fill="black"/>
</svg>
