<svg width="31" height="33" viewBox="0 0 31 33" fill="none" xmlns="http://www.w3.org/2000/svg">
<path d="M15.7799 0.576294C16.2535 0.576955 16.7268 0.597887 17.1986 0.639033C18.7023 0.768557 19.8073 1.88166 20.1513 3.18703L20.7342 5.4274C20.7706 5.56098 20.8941 5.74717 21.1633 5.88074C21.6308 6.11146 22.0821 6.37253 22.5152 6.66194C22.7641 6.82789 22.9867 6.84408 23.1203 6.80563L25.3526 6.19241C26.6559 5.83622 28.1697 6.23491 29.0359 7.46742C29.5824 8.24659 30.06 9.07029 30.4607 9.93244C31.0982 11.2985 30.6854 12.8103 29.724 13.7595L28.0766 15.3907C27.9775 15.4878 27.8783 15.6882 27.8985 15.9857C27.9309 16.5058 27.9309 17.028 27.8985 17.5481C27.8783 17.8456 27.9755 18.046 28.0766 18.1431L29.724 19.7743C30.6854 20.7235 31.0982 22.2353 30.4607 23.6014C30.0592 24.4627 29.5824 25.2869 29.0359 26.0644C28.1697 27.2989 26.6559 27.6976 25.3526 27.3394L23.1223 26.7282C22.9867 26.6897 22.7641 26.7059 22.5152 26.8719C22.082 27.1614 21.6304 27.4224 21.1633 27.6531C20.8941 27.7866 20.7706 27.9728 20.7362 28.1064L20.1493 30.3447C19.8093 31.6521 18.7023 32.7652 17.1986 32.8948C16.2546 32.9777 15.3052 32.9777 14.3612 32.8948C12.8575 32.7652 11.7525 31.6521 11.4104 30.3447L10.8256 28.1064C10.7891 27.9728 10.6657 27.7866 10.3965 27.6531C9.92885 27.4233 9.47719 27.1623 9.04459 26.8719C8.79566 26.7059 8.57304 26.6897 8.43947 26.7282L6.20719 27.3414C4.90385 27.6976 3.39002 27.2989 2.52383 26.0664C1.97848 25.2875 1.50177 24.4627 1.09905 23.6014C0.46155 22.2353 0.87441 20.7235 1.8337 19.7743L3.48312 18.1431C3.58431 18.046 3.68146 17.8456 3.66122 17.5481C3.62884 17.0278 3.62884 16.506 3.66122 15.9857C3.68146 15.6882 3.58431 15.4878 3.48312 15.3907L1.8337 13.7595C0.87441 12.8103 0.46155 11.2985 1.09905 9.93244C1.50002 9.07083 1.97683 8.24658 2.52383 7.46944C3.39002 6.23491 4.90385 5.83622 6.20719 6.19443L8.43745 6.80563C8.57304 6.84408 8.79566 6.82789 9.04459 6.66194C9.47769 6.37253 9.929 6.11146 10.3965 5.88074C10.6657 5.74717 10.7891 5.56098 10.8235 5.4274L11.4104 3.18905C11.7504 1.88166 12.8575 0.768557 14.3612 0.637009C14.8287 0.596532 15.3023 0.576294 15.7799 0.576294ZM14.6243 3.66263C14.5514 3.6687 14.4057 3.73549 14.347 3.95811L13.7621 6.19443C13.4646 7.3298 12.651 8.15147 11.7424 8.60076C11.3922 8.77481 11.0543 8.97112 10.7304 9.18767C9.8865 9.75029 8.76733 10.0437 7.63601 9.7341L5.40373 9.12089C5.18313 9.06017 5.04956 9.15327 5.00908 9.21196C4.56384 9.84339 4.17527 10.5153 3.84943 11.2155C3.8211 11.2783 3.80693 11.4382 3.96884 11.6001L5.61826 13.2313C6.45005 14.0529 6.75565 15.1681 6.69088 16.178C6.6666 16.5702 6.6666 16.9636 6.69088 17.3558C6.75565 18.3657 6.45005 19.4808 5.61826 20.3025L3.96884 21.9337C3.80491 22.0956 3.8211 22.2555 3.84943 22.3183C4.17729 23.0185 4.56384 23.6884 5.00908 24.3198C5.04956 24.3805 5.18111 24.4736 5.40373 24.4129L7.63399 23.7997C8.76733 23.49 9.8865 23.7835 10.7304 24.3461C11.0563 24.5627 11.3943 24.759 11.7444 24.933C12.649 25.3823 13.4646 26.206 13.7621 27.3394L14.347 29.5757C14.4057 29.7963 14.5514 29.8651 14.6243 29.8712C15.3932 29.9379 16.1665 29.9379 16.9355 29.8712C17.0083 29.8651 17.1541 29.7983 17.2128 29.5757L17.7976 27.3394C18.0951 26.204 18.9087 25.3823 19.8174 24.933C20.1675 24.759 20.5055 24.5627 20.8293 24.3461C21.6733 23.7835 22.7924 23.49 23.9238 23.7997L26.156 24.4129C26.3766 24.4716 26.5102 24.3805 26.5507 24.3218C26.9959 23.6884 27.3825 23.0185 27.7103 22.3183C27.7387 22.2555 27.7528 22.0956 27.5909 21.9337L25.9415 20.3025C25.1097 19.4808 24.8041 18.3657 24.8689 17.3558C24.8932 16.9636 24.8932 16.5702 24.8689 16.178C24.8041 15.1681 25.1097 14.0529 25.9415 13.2313L27.5909 11.6001C27.7549 11.4382 27.7387 11.2783 27.7103 11.2155C27.3836 10.5154 26.9956 9.84562 26.5507 9.21398C26.5102 9.15327 26.3787 9.06017 26.156 9.12089L23.9258 9.7341C22.7924 10.0437 21.6733 9.75029 20.8293 9.18767C20.5045 8.97019 20.1658 8.77413 19.8154 8.60076C18.9107 8.15147 18.0951 7.32778 17.7976 6.19443L17.2128 3.95811C17.1541 3.73549 17.0083 3.6687 16.9355 3.66263C16.1665 3.59585 15.3932 3.59585 14.6243 3.66263ZM21.8514 16.7669C21.8514 18.3772 21.2117 19.9215 20.0731 21.0601C18.9344 22.1987 17.3901 22.8384 15.7799 22.8384C14.1696 22.8384 12.6253 22.1987 11.4867 21.0601C10.3481 19.9215 9.70841 18.3772 9.70841 16.7669C9.70841 15.1566 10.3481 13.6123 11.4867 12.4737C12.6253 11.3351 14.1696 10.6954 15.7799 10.6954C17.3901 10.6954 18.9344 11.3351 20.0731 12.4737C21.2117 13.6123 21.8514 15.1566 21.8514 16.7669ZM18.8156 16.7669C18.8154 15.9615 18.4952 15.1892 17.9255 14.6199C17.3558 14.0506 16.5833 13.7309 15.7779 13.7312C14.9725 13.7314 14.2002 14.0516 13.6308 14.6213C13.0615 15.191 12.7419 15.9635 12.7421 16.7689C12.7424 17.5743 13.0626 18.3466 13.6323 18.9159C13.9144 19.1978 14.2492 19.4214 14.6177 19.5739C14.9862 19.7264 15.3811 19.8048 15.7799 19.8047C16.1787 19.8045 16.5735 19.7258 16.9419 19.5731C17.3103 19.4204 17.645 19.1966 17.9269 18.9145C18.2088 18.6324 18.4324 18.2976 18.5848 17.9291C18.7373 17.5606 18.8158 17.1657 18.8156 16.7669Z" fill="black"/>
</svg>
