<svg width="27" height="36" viewBox="0 0 27 36" fill="none" xmlns="http://www.w3.org/2000/svg">
<path d="M15.3212 35.7384C12.8206 35.7384 10.5385 35.0401 8.47492 33.6437C6.41134 32.2473 4.91828 30.3842 3.99573 28.0545L0.28128 18.6956C0.184171 18.4528 0.117651 18.228 0.08172 18.0211C0.0457893 17.8143 0.0273383 17.5778 0.0263672 17.3118C0.0263672 16.5834 0.305558 15.9401 0.86394 15.3817C1.42232 14.8233 2.06567 14.5441 2.794 14.5441C2.96394 14.5441 3.11592 14.5504 3.24993 14.5631C3.38394 14.5757 3.52329 14.6058 3.66799 14.6534L4.79689 14.9447C5.13677 15.0418 5.45238 15.1695 5.74371 15.3278C6.03504 15.4861 6.31423 15.6861 6.58128 15.9279V7.33372C6.58128 6.31407 6.93331 5.45222 7.63735 4.74817C8.3414 4.04413 9.20325 3.6921 10.2229 3.6921C10.3686 3.6921 10.5084 3.69793 10.6424 3.70958C10.7764 3.72124 10.9036 3.73969 11.0241 3.76494C11.1697 2.84239 11.5888 2.11407 12.2811 1.57996C12.9735 1.04586 13.7441 0.778809 14.5928 0.778809C15.3697 0.778809 16.0616 0.991479 16.6686 1.41682C17.2755 1.84216 17.7125 2.40637 17.9796 3.10945C18.1495 3.06089 18.3136 3.02447 18.4719 3.0002C18.6302 2.97592 18.7938 2.96378 18.9628 2.96378C19.9824 2.96378 20.8443 3.3158 21.5483 4.01985C22.2524 4.7239 22.6044 5.58575 22.6044 6.6054V7.40656C22.7258 7.38228 22.8472 7.36431 22.9686 7.35266C23.09 7.34101 23.2113 7.33469 23.3327 7.33372C24.3524 7.33372 25.2142 7.68575 25.9183 8.38979C26.6223 9.09384 26.9743 9.95569 26.9743 10.9753V24.0852C26.9743 27.3384 25.8454 30.0938 23.5876 32.3516C21.3298 34.6095 18.5743 35.7384 15.3212 35.7384ZM15.3212 32.8251C17.7489 32.8251 19.8125 31.9753 21.5119 30.2759C23.2113 28.5765 24.0611 26.5129 24.0611 24.0852V10.9753C24.0611 10.7811 23.9882 10.6112 23.8426 10.4655C23.6969 10.3199 23.527 10.247 23.3327 10.247C23.1385 10.247 22.9686 10.3199 22.8229 10.4655C22.6772 10.6112 22.6044 10.7811 22.6044 10.9753V16.8019C22.6044 17.2147 22.4646 17.5608 22.1849 17.8405C21.9052 18.1202 21.5595 18.2596 21.1478 18.2586C20.735 18.2586 20.3888 18.1187 20.1092 17.8391C19.8295 17.5594 19.6901 17.2137 19.6911 16.8019V6.6054C19.6911 6.41118 19.6183 6.24124 19.4726 6.09557C19.327 5.94991 19.157 5.87708 18.9628 5.87708C18.7686 5.87708 18.5986 5.94991 18.453 6.09557C18.3073 6.24124 18.2345 6.41118 18.2345 6.6054V16.8019C18.2345 17.2147 18.0946 17.5608 17.8149 17.8405C17.5353 18.1202 17.1896 18.2596 16.7778 18.2586C16.3651 18.2586 16.0189 18.1187 15.7392 17.8391C15.4595 17.5594 15.3202 17.2137 15.3212 16.8019V4.42043C15.3212 4.22621 15.2483 4.05627 15.1027 3.9106C14.957 3.76494 14.7871 3.6921 14.5928 3.6921C14.3986 3.6921 14.2287 3.76494 14.083 3.9106C13.9374 4.05627 13.8645 4.22621 13.8645 4.42043V16.8019C13.8645 17.2147 13.7247 17.5608 13.445 17.8405C13.1653 18.1202 12.8196 18.2596 12.4079 18.2586C11.9952 18.2586 11.649 18.1187 11.3693 17.8391C11.0896 17.5594 10.9503 17.2137 10.9512 16.8019V7.33372C10.9512 7.1395 10.8784 6.96956 10.7327 6.8239C10.5871 6.67823 10.4171 6.6054 10.2229 6.6054C10.0287 6.6054 9.85874 6.67823 9.71307 6.8239C9.56741 6.96956 9.49458 7.1395 9.49458 7.33372V21.1719C9.49458 21.5846 9.35474 21.9308 9.07506 22.2105C8.79539 22.4901 8.44968 22.6295 8.03793 22.6285H7.49169C7.17608 22.6285 6.91534 22.5494 6.70947 22.3911C6.50359 22.2328 6.33948 22.0085 6.21712 21.7181L5.16105 18.9869C4.99111 18.5742 4.75416 18.2707 4.45021 18.0765C4.14625 17.8823 3.64274 17.6759 2.93966 17.4574L6.72695 26.9985C7.43099 28.7464 8.56572 30.1545 10.1311 31.2227C11.6965 32.291 13.4266 32.8251 15.3212 32.8251Z" fill="black"/>
</svg>
