<svg width="27" height="27" viewBox="0 0 27 27" fill="none" xmlns="http://www.w3.org/2000/svg">
<path d="M6.46046 0.894836L5.77246 1.61384L1.36646 6.01984L0.647461 6.70784L7.83546 13.8948L2.83546 18.8948L2.77246 19.2078L1.67846 24.7078L1.36646 26.1758L2.83546 25.8638L8.33546 24.7698L8.64746 24.7068L13.6475 19.7068L20.8035 26.8638L21.4915 26.1448L25.8975 21.7388L26.6165 21.0508L19.4595 13.8948L24.3975 8.95684C24.78 8.57573 25.0835 8.12285 25.2906 7.62417C25.4978 7.12548 25.6044 6.59082 25.6044 6.05084C25.6044 5.51086 25.4978 4.97619 25.2906 4.47751C25.0835 3.97883 24.78 3.52594 24.3975 3.14484C24.0171 2.76046 23.5646 2.45493 23.0659 2.24575C22.5673 2.03657 22.0322 1.92786 21.4915 1.92584C20.9505 1.92773 20.4153 2.03638 19.9164 2.24556C19.4176 2.45475 18.965 2.76035 18.5845 3.14484L13.6475 8.08284L6.46046 0.894836ZM6.46046 3.73884L8.39746 5.70684L6.92846 7.17684L8.36646 8.61384L9.83546 7.14484L12.2095 9.51984L9.24146 12.4888L3.46046 6.70784L6.46046 3.73884ZM21.4905 3.86384C22.0105 3.86384 22.5385 4.09784 22.9905 4.55084C23.8935 5.45384 23.8935 6.61784 22.9905 7.51984L22.3355 8.17584L19.3655 5.20684L20.0225 4.55084C20.4755 4.09784 20.9715 3.86384 21.4905 3.86384ZM17.9605 6.61384L20.9285 9.58284L8.83546 21.6748C8.17354 20.4041 7.13662 19.3679 5.86546 18.7068L17.9605 6.61384ZM18.0535 15.3008L20.4285 17.6758L18.9285 19.1758L20.3665 20.6138L21.8665 19.1138L23.7725 21.0198L20.7725 24.0198L15.0535 18.3008L18.0535 15.3008ZM4.58546 20.3008C5.78445 20.8047 6.73804 21.7587 7.24146 22.9578L3.92846 23.6138L4.58546 20.3008Z" fill="black"/>
</svg>
