<svg width="18" height="18" viewBox="0 0 18 18" fill="none" xmlns="http://www.w3.org/2000/svg">
<path d="M16.4615 10.2046H10.2436V16.4226C10.2436 16.7524 10.1126 17.0687 9.87935 17.3019C9.64613 17.5351 9.32982 17.6661 9 17.6661C8.67019 17.6661 8.35388 17.5351 8.12066 17.3019C7.88744 17.0687 7.75642 16.7524 7.75642 16.4226V10.2046H1.5385C1.20869 10.2046 0.892376 10.0736 0.659159 9.84041C0.425942 9.60719 0.294922 9.29088 0.294922 8.96106C0.294922 8.63124 0.425942 8.31493 0.659159 8.08172C0.892376 7.8485 1.20869 7.71748 1.5385 7.71748H7.75642V1.49956C7.75642 1.16975 7.88744 0.853435 8.12066 0.620218C8.35388 0.387001 8.67019 0.255981 9 0.255981C9.32982 0.255981 9.64613 0.387001 9.87935 0.620218C10.1126 0.853435 10.2436 1.16975 10.2436 1.49956V7.71748H16.4615C16.7913 7.71748 17.1076 7.8485 17.3408 8.08172C17.5741 8.31493 17.7051 8.63124 17.7051 8.96106C17.7051 9.29088 17.5741 9.60719 17.3408 9.84041C17.1076 10.0736 16.7913 10.2046 16.4615 10.2046Z" fill="black"/>
</svg>
