<svg width="33" height="33" viewBox="0 0 33 33" fill="none" xmlns="http://www.w3.org/2000/svg">
<path d="M16.1418 26.0278C16.7038 26.0278 17.1792 25.8335 17.5678 25.4449C17.9564 25.0563 18.1501 24.5815 18.1491 24.0206C18.1491 23.4585 17.9553 22.9832 17.5678 22.5946C17.1802 22.206 16.7049 22.0122 16.1418 22.0133C15.5798 22.0133 15.105 22.2076 14.7175 22.5962C14.3299 22.9848 14.1356 23.4596 14.1345 24.0206C14.1345 24.5826 14.3289 25.0579 14.7175 25.4465C15.1061 25.8351 15.5808 26.0289 16.1418 26.0278ZM14.6966 19.8455H17.6673C17.6673 18.9623 17.7679 18.2664 17.9692 17.7579C18.1705 17.2494 18.7389 16.5536 19.6746 15.6704C20.3704 14.9745 20.9191 14.3119 21.3205 13.6824C21.722 13.0529 21.9227 12.2971 21.9227 11.415C21.9227 9.91625 21.374 8.76543 20.2767 7.96253C19.1794 7.15962 17.8814 6.75817 16.3827 6.75817C14.8572 6.75817 13.6191 7.15962 12.6685 7.96253C11.7178 8.76543 11.0557 9.72891 10.6821 10.853L13.3316 11.8967C13.4655 11.415 13.7668 10.8931 14.2357 10.3311C14.7046 9.76905 15.4203 9.48804 16.3827 9.48804C17.2391 9.48804 17.8814 9.72249 18.3096 10.1914C18.7379 10.6603 18.952 11.1752 18.952 11.7362C18.952 12.2714 18.7914 12.7735 18.4702 13.2424C18.1491 13.7113 17.7476 14.1459 17.2659 14.5463C16.0883 15.5901 15.3657 16.3796 15.098 16.9149C14.8304 17.4501 14.6966 18.427 14.6966 19.8455ZM16.2221 32.451C14.0007 32.451 11.9132 32.0292 9.95946 31.1857C8.00574 30.3421 6.30626 29.1982 4.86104 27.7541C3.41581 26.3088 2.27195 24.6094 1.42944 22.6556C0.586924 20.7019 0.165133 18.6144 0.164062 16.393C0.164062 14.1716 0.585854 12.0841 1.42944 10.1304C2.27302 8.17663 3.41688 6.47716 4.86104 5.03194C6.30626 3.58671 8.00574 2.44285 9.95946 1.60033C11.9132 0.757823 14.0007 0.336031 16.2221 0.334961C18.4435 0.334961 20.531 0.756752 22.4847 1.60033C24.4385 2.44392 26.1379 3.58778 27.5832 5.03194C29.0284 6.47716 30.1728 8.17663 31.0164 10.1304C31.8599 12.0841 32.2812 14.1716 32.2801 16.393C32.2801 18.6144 31.8583 20.7019 31.0148 22.6556C30.1712 24.6094 29.0273 26.3088 27.5832 27.7541C26.1379 29.1993 24.4385 30.3437 22.4847 31.1873C20.531 32.0308 18.4435 32.4521 16.2221 32.451Z" fill="black"/>
</svg>
