<svg width="29" height="12" viewBox="0 0 29 12" fill="none" xmlns="http://www.w3.org/2000/svg">
<path d="M23.7082 4.25328C21.0583 1.94716 17.6207 0.529114 13.8249 0.529114C7.86621 0.529114 2.73832 3.99545 0.303294 9.02307C-0.155065 9.98276 0.360589 11.1287 1.37757 11.4724C2.22267 11.7589 3.13939 11.3578 3.52613 10.5557C5.38821 6.7456 9.29858 4.11004 13.8249 4.11004C16.618 4.11004 19.1676 5.14135 21.1586 6.8029L18.4228 9.53872C17.5204 10.4411 18.1506 11.9881 19.4254 11.9881H27.4324C28.2202 11.9881 28.8648 11.3435 28.8648 10.5557V2.54876C28.8648 1.27395 27.3178 0.629379 26.4154 1.53177L23.7082 4.25328Z" fill="black"/>
</svg>
