<svg width="23" height="28" viewBox="0 0 23 28" fill="none" xmlns="http://www.w3.org/2000/svg">
<path d="M20.4558 24.0758C20.6086 24.2905 20.7176 24.5332 20.7765 24.7901C20.8355 25.0469 20.8433 25.3128 20.7995 25.5727C20.7556 25.8325 20.661 26.0812 20.5211 26.3045C20.3812 26.5278 20.1986 26.7213 19.9839 26.874L19.3076 27.3551C19.0929 27.5079 18.8502 27.6168 18.5933 27.6758C18.3365 27.7348 18.0706 27.7426 17.8107 27.6987C17.5509 27.6549 17.3022 27.5603 17.0789 27.4204C16.8556 27.2804 16.6621 27.0979 16.5094 26.8831L10.8298 18.9005L7.0745 24.6687C6.86335 24.9962 6.56053 25.2543 6.20375 25.411C5.84697 25.5677 5.45199 25.6159 5.06798 25.5498L4.97154 25.5335C4.57378 25.4492 4.21155 25.2446 3.93388 24.9476C3.65622 24.6506 3.47653 24.2754 3.41916 23.8728L0.294534 2.98894C0.239596 2.62346 0.286998 2.24991 0.43148 1.90974C0.575961 1.56957 0.811871 1.27609 1.11303 1.06186C1.41419 0.847625 1.76882 0.721029 2.13756 0.696116C2.5063 0.671204 2.87473 0.748949 3.20197 0.920724L21.9057 10.7224C22.2626 10.9128 22.5537 11.2066 22.7407 11.5653C22.9277 11.924 23.0019 12.3309 22.9535 12.7326C22.9052 13.1342 22.7365 13.5118 22.4697 13.8159C22.2029 14.12 21.8504 14.3364 21.4585 14.4366L14.7777 16.0922L20.4558 24.0758Z" fill="black"/>
</svg>
