<svg width="161" height="147" viewBox="0 0 161 147" fill="none" xmlns="http://www.w3.org/2000/svg">
<path d="M23.5911 3.61102C25.0107 -0.0220339 29.8584 -0.702955 32.2239 2.39845L70.4378 52.501C72.7565 55.5411 70.9439 59.9529 67.1577 60.4847L6.0111 69.0734C2.2249 69.6052 -0.732972 65.8635 0.658494 62.3023L23.5911 3.61102Z" fill="#E24728"/>
<path d="M28.5969 94.0128C27.531 91.4654 28.732 88.5363 31.2795 87.4704L80.2985 66.9601C82.8459 65.8942 85.7751 67.0952 86.841 69.6426L107.351 118.662C108.417 121.209 107.216 124.138 104.669 125.204L55.6497 145.714C53.1023 146.78 50.1731 145.579 49.1072 143.032L28.5969 94.0128Z" fill="#01A1D3"/>
<path d="M160.525 47.2922C160.525 66.9573 144.583 82.899 124.918 82.899C105.253 82.899 89.3115 66.9573 89.3115 47.2922C89.3115 27.6272 105.253 11.6855 124.918 11.6855C144.583 11.6855 160.525 27.6272 160.525 47.2922Z" fill="#FBB901"/>
</svg>
