<svg width="29" height="12" viewBox="0 0 29 12" fill="none" xmlns="http://www.w3.org/2000/svg">
<path d="M15.1674 0.53186C11.3735 0.53186 7.93742 1.94922 5.28881 4.25423L2.58294 1.54835C1.68098 0.646395 0.134766 1.27633 0.134766 2.55053V10.5536C0.134766 11.341 0.779022 11.9853 1.56645 11.9853H9.56954C10.8437 11.9853 11.488 10.4391 10.586 9.53713L7.85152 6.80262C9.84156 5.14187 12.3756 4.11106 15.1817 4.11106C19.7058 4.11106 23.6143 6.74535 25.4755 10.5536C25.8621 11.3554 26.7783 11.7562 27.623 11.4699C28.6395 11.1406 29.1549 9.98095 28.6968 9.00741C26.2343 3.99653 21.1089 0.53186 15.1674 0.53186Z" fill="black"/>
</svg>
